<svg xmlns="http://www.w3.org/2000/svg" width="1160" height="900" viewBox="0 0 1160 900" font-family="Helvetica, Arial, sans-serif">
<rect width="1160" height="900" fill="#ffffff"/>
<text x="78" y="50" font-size="14.5" font-weight="700" fill="#0F172A">Decision latency p50 (adds to TTFT)</text>
<rect x="78" y="64" width="499" height="359" fill="#F8FAFC" stroke="#CBD5E1" stroke-width="1" rx="6"/>
<line x1="78" y1="423.0" x2="577" y2="423.0" stroke="#E2E8F0" stroke-width="1"/>
<text x="70" y="427.0" font-size="11.5" fill="#64748B" text-anchor="end">0</text>
<line x1="78" y1="333.2" x2="577" y2="333.2" stroke="#E2E8F0" stroke-width="1"/>
<text x="70" y="337.2" font-size="11.5" fill="#64748B" text-anchor="end">50</text>
<line x1="78" y1="243.5" x2="577" y2="243.5" stroke="#E2E8F0" stroke-width="1"/>
<text x="70" y="247.5" font-size="11.5" fill="#64748B" text-anchor="end">100</text>
<line x1="78" y1="153.8" x2="577" y2="153.8" stroke="#E2E8F0" stroke-width="1"/>
<text x="70" y="157.8" font-size="11.5" fill="#64748B" text-anchor="end">150</text>
<line x1="78" y1="64.0" x2="577" y2="64.0" stroke="#E2E8F0" stroke-width="1"/>
<text x="70" y="68.0" font-size="11.5" fill="#64748B" text-anchor="end">200</text>
<text x="22" y="243.5" font-size="11.5" fill="#64748B" transform="rotate(-90 22 243.5)" text-anchor="middle">ms</text>
<text x="78.0" y="441" font-size="11.5" fill="#64748B" text-anchor="middle">500</text>
<text x="228.2" y="441" font-size="11.5" fill="#64748B" text-anchor="middle">1000</text>
<text x="378.4" y="441" font-size="11.5" fill="#64748B" text-anchor="middle">2000</text>
<text x="577.0" y="441" font-size="11.5" fill="#64748B" text-anchor="middle">5000</text>
<polyline points="78.0,392.1 228.2,340.4 378.4,298.7 577.0,122.8" fill="none" stroke="#3B82F6" stroke-width="2.5"/>
<circle cx="78.0" cy="392.1" r="4" fill="#3B82F6"/>
<circle cx="228.2" cy="340.4" r="4" fill="#3B82F6"/>
<circle cx="378.4" cy="298.7" r="4" fill="#3B82F6"/>
<circle cx="577.0" cy="122.8" r="4" fill="#3B82F6"/>
<polyline points="78.0,390.5 228.2,353.9 378.4,289.4 577.0,100.2" fill="none" stroke="#F59E0B" stroke-width="2.5"/>
<circle cx="78.0" cy="390.5" r="4" fill="#F59E0B"/>
<circle cx="228.2" cy="353.9" r="4" fill="#F59E0B"/>
<circle cx="378.4" cy="289.4" r="4" fill="#F59E0B"/>
<circle cx="577.0" cy="100.2" r="4" fill="#F59E0B"/>
<text x="569" y="80" font-size="12" font-weight="700" fill="#334155" text-anchor="end">0.93x at 5000 · http better</text>
<text x="637" y="50" font-size="14.5" font-weight="700" fill="#0F172A">Decision latency p99</text>
<rect x="637" y="64" width="499" height="359" fill="#F8FAFC" stroke="#CBD5E1" stroke-width="1" rx="6"/>
<line x1="637" y1="423.0" x2="1136" y2="423.0" stroke="#E2E8F0" stroke-width="1"/>
<text x="629" y="427.0" font-size="11.5" fill="#64748B" text-anchor="end">0</text>
<line x1="637" y1="333.2" x2="1136" y2="333.2" stroke="#E2E8F0" stroke-width="1"/>
<text x="629" y="337.2" font-size="11.5" fill="#64748B" text-anchor="end">188</text>
<line x1="637" y1="243.5" x2="1136" y2="243.5" stroke="#E2E8F0" stroke-width="1"/>
<text x="629" y="247.5" font-size="11.5" fill="#64748B" text-anchor="end">375</text>
<line x1="637" y1="153.8" x2="1136" y2="153.8" stroke="#E2E8F0" stroke-width="1"/>
<text x="629" y="157.8" font-size="11.5" fill="#64748B" text-anchor="end">562</text>
<line x1="637" y1="64.0" x2="1136" y2="64.0" stroke="#E2E8F0" stroke-width="1"/>
<text x="629" y="68.0" font-size="11.5" fill="#64748B" text-anchor="end">750</text>
<text x="581" y="243.5" font-size="11.5" fill="#64748B" transform="rotate(-90 581 243.5)" text-anchor="middle">ms</text>
<text x="637.0" y="441" font-size="11.5" fill="#64748B" text-anchor="middle">500</text>
<text x="787.2" y="441" font-size="11.5" fill="#64748B" text-anchor="middle">1000</text>
<text x="937.4" y="441" font-size="11.5" fill="#64748B" text-anchor="middle">2000</text>
<text x="1136.0" y="441" font-size="11.5" fill="#64748B" text-anchor="middle">5000</text>
<polyline points="637.0,388.9 787.2,325.5 937.4,286.9 1136.0,100.9" fill="none" stroke="#3B82F6" stroke-width="2.5"/>
<circle cx="637.0" cy="388.9" r="4" fill="#3B82F6"/>
<circle cx="787.2" cy="325.5" r="4" fill="#3B82F6"/>
<circle cx="937.4" cy="286.9" r="4" fill="#3B82F6"/>
<circle cx="1136.0" cy="100.9" r="4" fill="#3B82F6"/>
<polyline points="637.0,406.1 787.2,378.5 937.4,344.9 1136.0,196.3" fill="none" stroke="#F59E0B" stroke-width="2.5"/>
<circle cx="637.0" cy="406.1" r="4" fill="#F59E0B"/>
<circle cx="787.2" cy="378.5" r="4" fill="#F59E0B"/>
<circle cx="937.4" cy="344.9" r="4" fill="#F59E0B"/>
<circle cx="1136.0" cy="196.3" r="4" fill="#F59E0B"/>
<text x="1128" y="80" font-size="12" font-weight="700" fill="#334155" text-anchor="end">1.42x at 5000 · ext_proc better</text>
<text x="78" y="499" font-size="14.5" font-weight="700" fill="#0F172A">Throughput</text>
<rect x="78" y="513" width="499" height="359" fill="#F8FAFC" stroke="#CBD5E1" stroke-width="1" rx="6"/>
<line x1="78" y1="872.0" x2="577" y2="872.0" stroke="#E2E8F0" stroke-width="1"/>
<text x="70" y="876.0" font-size="11.5" fill="#64748B" text-anchor="end">0</text>
<line x1="78" y1="782.2" x2="577" y2="782.2" stroke="#E2E8F0" stroke-width="1"/>
<text x="70" y="786.2" font-size="11.5" fill="#64748B" text-anchor="end">7500</text>
<line x1="78" y1="692.5" x2="577" y2="692.5" stroke="#E2E8F0" stroke-width="1"/>
<text x="70" y="696.5" font-size="11.5" fill="#64748B" text-anchor="end">15000</text>
<line x1="78" y1="602.8" x2="577" y2="602.8" stroke="#E2E8F0" stroke-width="1"/>
<text x="70" y="606.8" font-size="11.5" fill="#64748B" text-anchor="end">22500</text>
<line x1="78" y1="513.0" x2="577" y2="513.0" stroke="#E2E8F0" stroke-width="1"/>
<text x="70" y="517.0" font-size="11.5" fill="#64748B" text-anchor="end">30000</text>
<text x="22" y="692.5" font-size="11.5" fill="#64748B" transform="rotate(-90 22 692.5)" text-anchor="middle">req/s</text>
<text x="78.0" y="890" font-size="11.5" fill="#64748B" text-anchor="middle">500</text>
<text x="228.2" y="890" font-size="11.5" fill="#64748B" text-anchor="middle">1000</text>
<text x="378.4" y="890" font-size="11.5" fill="#64748B" text-anchor="middle">2000</text>
<text x="577.0" y="890" font-size="11.5" fill="#64748B" text-anchor="middle">5000</text>
<polyline points="78.0,576.6 228.2,659.6 378.4,574.9 577.0,584.2" fill="none" stroke="#3B82F6" stroke-width="2.5"/>
<circle cx="78.0" cy="576.6" r="4" fill="#3B82F6"/>
<circle cx="228.2" cy="659.6" r="4" fill="#3B82F6"/>
<circle cx="378.4" cy="574.9" r="4" fill="#3B82F6"/>
<circle cx="577.0" cy="584.2" r="4" fill="#3B82F6"/>
<polyline points="78.0,560.1 228.2,580.6 378.4,589.6 577.0,611.6" fill="none" stroke="#F59E0B" stroke-width="2.5"/>
<circle cx="78.0" cy="560.1" r="4" fill="#F59E0B"/>
<circle cx="228.2" cy="580.6" r="4" fill="#F59E0B"/>
<circle cx="378.4" cy="589.6" r="4" fill="#F59E0B"/>
<circle cx="577.0" cy="611.6" r="4" fill="#F59E0B"/>
<text x="569" y="529" font-size="12" font-weight="700" fill="#334155" text-anchor="end">1.11x at 5000 · http better</text>
<text x="637" y="499" font-size="14.5" font-weight="700" fill="#0F172A">EPP garbage created per request</text>
<rect x="637" y="513" width="499" height="359" fill="#F8FAFC" stroke="#CBD5E1" stroke-width="1" rx="6"/>
<line x1="637" y1="872.0" x2="1136" y2="872.0" stroke="#E2E8F0" stroke-width="1"/>
<text x="629" y="876.0" font-size="11.5" fill="#64748B" text-anchor="end">0</text>
<line x1="637" y1="782.2" x2="1136" y2="782.2" stroke="#E2E8F0" stroke-width="1"/>
<text x="629" y="786.2" font-size="11.5" fill="#64748B" text-anchor="end">38</text>
<line x1="637" y1="692.5" x2="1136" y2="692.5" stroke="#E2E8F0" stroke-width="1"/>
<text x="629" y="696.5" font-size="11.5" fill="#64748B" text-anchor="end">75</text>
<line x1="637" y1="602.8" x2="1136" y2="602.8" stroke="#E2E8F0" stroke-width="1"/>
<text x="629" y="606.8" font-size="11.5" fill="#64748B" text-anchor="end">112</text>
<line x1="637" y1="513.0" x2="1136" y2="513.0" stroke="#E2E8F0" stroke-width="1"/>
<text x="629" y="517.0" font-size="11.5" fill="#64748B" text-anchor="end">150</text>
<text x="581" y="692.5" font-size="11.5" fill="#64748B" transform="rotate(-90 581 692.5)" text-anchor="middle">KB</text>
<text x="637.0" y="890" font-size="11.5" fill="#64748B" text-anchor="middle">500</text>
<text x="787.2" y="890" font-size="11.5" fill="#64748B" text-anchor="middle">1000</text>
<text x="937.4" y="890" font-size="11.5" fill="#64748B" text-anchor="middle">2000</text>
<text x="1136.0" y="890" font-size="11.5" fill="#64748B" text-anchor="middle">5000</text>
<polyline points="637.0,619.7 787.2,618.8 937.4,618.5 1136.0,612.8" fill="none" stroke="#3B82F6" stroke-width="2.5"/>
<circle cx="637.0" cy="619.7" r="4" fill="#3B82F6"/>
<circle cx="787.2" cy="618.8" r="4" fill="#3B82F6"/>
<circle cx="937.4" cy="618.5" r="4" fill="#3B82F6"/>
<circle cx="1136.0" cy="612.8" r="4" fill="#3B82F6"/>
<polyline points="637.0,642.2 787.2,641.3 937.4,643.2 1136.0,634.8" fill="none" stroke="#F59E0B" stroke-width="2.5"/>
<circle cx="637.0" cy="642.2" r="4" fill="#F59E0B"/>
<circle cx="787.2" cy="641.3" r="4" fill="#F59E0B"/>
<circle cx="937.4" cy="643.2" r="4" fill="#F59E0B"/>
<circle cx="1136.0" cy="634.8" r="4" fill="#F59E0B"/>
<text x="1128" y="529" font-size="12" font-weight="700" fill="#334155" text-anchor="end">1.09x at 5000 · ext_proc better</text>
<rect x="78" y="867" width="22" height="4" rx="2" fill="#3B82F6"/>
<text x="108" y="873" font-size="13" font-weight="700" fill="#334155">http</text>
<rect x="228" y="867" width="22" height="4" rx="2" fill="#F59E0B"/>
<text x="258" y="873" font-size="13" font-weight="700" fill="#334155">ext_proc</text>
<text x="1136" y="873" font-size="11.5" fill="#94A3B8" text-anchor="end">same EPP · x axis is concurrency, log scale · red x = arm failed</text>
</svg>
